<svg xmlns="http://www.w3.org/2000/svg" width="25.038" height="25.035" viewBox="0 0 25.038 25.035">
  <g id="Group_16065" data-name="Group 16065" transform="translate(-174.521 -9.475)">
    <path id="Path_77168" data-name="Path 77168" d="M174.521,14.273V31.69a2.825,2.825,0,0,0,2.819,2.819h19.4a2.825,2.825,0,0,0,2.819-2.819V14.273a2.825,2.825,0,0,0-2.822-2.819H195.4V9.475h-1.678v1.979H180.357V9.475h-1.68v1.979H177.34A2.826,2.826,0,0,0,174.521,14.273ZM197.876,31.69a1.143,1.143,0,0,1-1.14,1.14h-19.4a1.143,1.143,0,0,1-1.14-1.14V18.475h21.676ZM180.357,15.113v-1.98h13.364v1.98H195.4v-1.98h1.338a1.143,1.143,0,0,1,1.14,1.14l0,2.525H176.2V14.273a1.143,1.143,0,0,1,1.14-1.14h1.337v1.98Z" fill="#585858"/>
    <rect id="Rectangle_2945" data-name="Rectangle 2945" width="1.7" height="1.7" transform="translate(178.521 20.475)" fill="#585858"/>
    <rect id="Rectangle_2946" data-name="Rectangle 2946" width="1.7" height="1.7" transform="translate(182.521 20.475)" fill="#585858"/>
    <rect id="Rectangle_2947" data-name="Rectangle 2947" width="1.7" height="1.7" transform="translate(186.521 20.475)" fill="#585858"/>
    <rect id="Rectangle_2948" data-name="Rectangle 2948" width="1.7" height="1.7" transform="translate(190.521 20.475)" fill="#585858"/>
    <rect id="Rectangle_2949" data-name="Rectangle 2949" width="1.7" height="1.7" transform="translate(194.521 20.475)" fill="#585858"/>
    <rect id="Rectangle_2950" data-name="Rectangle 2950" width="1.7" height="1.7" transform="translate(178.521 24.474)" fill="#585858"/>
    <rect id="Rectangle_2951" data-name="Rectangle 2951" width="1.7" height="1.7" transform="translate(182.521 24.474)" fill="#585858"/>
    <rect id="Rectangle_2952" data-name="Rectangle 2952" width="1.7" height="1.7" transform="translate(186.521 24.474)" fill="#585858"/>
    <rect id="Rectangle_2953" data-name="Rectangle 2953" width="1.7" height="1.7" transform="translate(190.521 24.474)" fill="#585858"/>
    <rect id="Rectangle_2954" data-name="Rectangle 2954" width="1.7" height="1.7" transform="translate(178.521 28.475)" fill="#585858"/>
    <rect id="Rectangle_2955" data-name="Rectangle 2955" width="1.7" height="1.7" transform="translate(182.521 28.475)" fill="#585858"/>
    <rect id="Rectangle_2956" data-name="Rectangle 2956" width="1.7" height="1.7" transform="translate(186.521 28.475)" fill="#585858"/>
    <rect id="Rectangle_2957" data-name="Rectangle 2957" width="1.7" height="1.7" transform="translate(190.521 28.475)" fill="#585858"/>
    <rect id="Rectangle_2958" data-name="Rectangle 2958" width="1.7" height="1.7" transform="translate(194.521 24.474)" fill="#585858"/>
  </g>
</svg>
