<svg xmlns="http://www.w3.org/2000/svg" width="30.455" height="25.092" viewBox="0 0 30.455 25.092">
  <g id="Group_16066" data-name="Group 16066" transform="translate(-147.313 -51.305)">
    <path id="Path_77169" data-name="Path 77169" d="M158.97,76.386a3.07,3.07,0,0,0,.489,0,2.975,2.975,0,1,0,.51-5.929,2.673,2.673,0,0,0-.49,0h-.02a2.975,2.975,0,1,0-.489,5.929Zm-.534-3.948a1.465,1.465,0,0,1,1.017-.373h.029a1.366,1.366,0,0,1,.731,2.418,1.355,1.355,0,0,1-.863.31,1.276,1.276,0,0,1-.138-.007,1.363,1.363,0,0,1-1.232-1.36A1.409,1.409,0,0,1,158.436,72.438Z" fill="#585858"/>
    <path id="Path_77170" data-name="Path 77170" d="M175.715,63.4l2.046-8.025a.878.878,0,0,0-.757-.967,1.139,1.139,0,0,0-.12-.007h-22.6l-1.142-2.585a.923.923,0,0,0-.827-.5H152.3l-4.111,0a.806.806,0,0,0-.877.728.808.808,0,0,0,.728.877.939.939,0,0,0,.15,0h3.492l.033.074q1.773,3.975,3.521,7.954.762,1.729,1.525,3.457l.023.052-1.567,3.424a.74.74,0,0,0,.081.746.942.942,0,0,0,.746.361h17.077a.817.817,0,0,0,.909-.71.809.809,0,0,0-.712-.895.791.791,0,0,0-.182,0H157.4l1-2.155,16.512-1.194A.907.907,0,0,0,175.715,63.4Zm-1.616-.924-.09.006-15.652,1.127-.035-.08L154.989,56H175.75Z" fill="#585858"/>
    <path id="Path_77171" data-name="Path 77171" d="M169.211,76.386a3.07,3.07,0,0,0,.489,0,2.983,2.983,0,0,0,3.23-2.72,2.975,2.975,0,0,0-2.721-3.209,2.663,2.663,0,0,0-.489,0h-.02a2.975,2.975,0,1,0-.489,5.929Zm-.534-3.948a1.47,1.47,0,0,1,1.017-.373h.029a1.367,1.367,0,0,1-.134,2.728,1.252,1.252,0,0,1-.136-.007,1.363,1.363,0,0,1-1.232-1.36A1.409,1.409,0,0,1,168.677,72.438Z" fill="#585858"/>
  </g>
</svg>
