<svg xmlns="http://www.w3.org/2000/svg" width="27.273" height="27.273" viewBox="0 0 27.273 27.273">
  <g id="Group_16067" data-name="Group 16067" transform="translate(-190.146 -41.205)">
    <path id="Path_77172" data-name="Path 77172" d="M216.6,50.576a.818.818,0,0,0-.818.817,2.387,2.387,0,0,1-4.774,0,.816.816,0,1,0-1.633,0,2.387,2.387,0,0,1-4.774,0,.817.817,0,0,0-1.635,0,2.39,2.39,0,0,1-2.387,2.378h-.009a2.392,2.392,0,0,1-2.378-2.4.817.817,0,1,0-1.633,0,2.391,2.391,0,0,1-2.378,2.4h-.009a2.387,2.387,0,0,1-2.387-2.376V48.827l2.592-5.98h18.813l2.163,4.994H193.838a.818.818,0,0,0,0,1.635l13.476,0c9.626.006,9.627.006,9.78-.174a.811.811,0,0,0,.311-.531c.046-.214.046-.214-1.23-3.155l-1.7-3.915a.757.757,0,0,0-.755-.493H193.838a.818.818,0,0,0-.75.493l-2.874,6.633c-.069.147-.069.147-.068,1.586V51.4a4.02,4.02,0,0,0,7.226,2.424,4.023,4.023,0,0,0,6.408,0,4.023,4.023,0,0,0,6.408,0,4.021,4.021,0,0,0,7.226-2.429A.818.818,0,0,0,216.6,50.576Z" fill="#585858"/>
    <path id="Path_77173" data-name="Path 77173" d="M215.271,55.741a.817.817,0,0,0-.816.817v9.334a.956.956,0,0,1-.952.952H194.06a.955.955,0,0,1-.952-.951V56.558a.816.816,0,1,0-1.633,0v9.335a2.59,2.59,0,0,0,2.585,2.585H213.5a2.59,2.59,0,0,0,2.584-2.585V56.558h0A.817.817,0,0,0,215.271,55.741Z" fill="#585858"/>
  </g>
</svg>
