<svg xmlns="http://www.w3.org/2000/svg" width="25.546" height="23.033" viewBox="0 0 25.546 23.033"><defs><style>.a{fill:#333;stroke:#333;stroke-width:0.8px;}</style></defs><g transform="translate(0.718 -11.981)"><path class="a" d="M28.325,11.425,16.5,5.9,4.67,11.407,16.5,16.975ZM16.5,7.246l8.939,4.179L16.5,15.6,7.558,11.425Zm7.6,13.3,4.228,1.976L16.5,28.05,4.67,22.543,8.9,20.567l.514,1.107-1.836.869L16.5,26.7l8.939-4.179L23.6,21.656Zm0-5.507,4.228,1.976L16.5,22.537,4.67,17.03,8.9,15.054l.514,1.107-1.836.869L16.5,21.191l8.939-4.179L23.6,16.143Z" transform="translate(-4.442 6.522)"/></g></svg>