<svg xmlns="http://www.w3.org/2000/svg" viewBox="0 0 512 512" width="512" height="512">
	<style>
		tspan { white-space:pre }
		.shp0 { fill: #585858 } 
	</style>
	<g id="Layer">
		<g id="Layer">
			<path id="Layer" fill-rule="evenodd" class="shp0" d="M512 100L512 452C512 485.08 485.08 512 452 512L60 512C26.92 512 0 485.08 0 452L0 100C0 66.92 26.92 40 60 40L84 40L84 0L124 0L124 40L388 40L388 0L428 0L428 40L452 40C485.08 40 512 66.92 512 100ZM472 188L40 188L40 452C40 463.03 48.97 472 60 472L452 472C463.03 472 472 463.03 472 452L472 188ZM472 100C472 88.97 463.03 80 452 80L428 80L428 120L388 120L388 80L124 80L124 120L84 120L84 80L60 80C48.97 80 40 88.97 40 100L40 148L472 148L472 100Z" />
		</g>
	</g>
	<g id="Layer">
		<g id="Layer">
			<path id="Layer" class="shp0" d="M76 230L116 230L116 270L76 270L76 230Z" />
		</g>
	</g>
	<g id="Layer">
		<g id="Layer">
			<path id="Layer" class="shp0" d="M156 230L196 230L196 270L156 270L156 230Z" />
		</g>
	</g>
	<g id="Layer">
		<g id="Layer">
			<path id="Layer" class="shp0" d="M236 230L276 230L276 270L236 270L236 230Z" />
		</g>
	</g>
	<g id="Layer">
		<g id="Layer">
			<path id="Layer" class="shp0" d="M316 230L356 230L356 270L316 270L316 230Z" />
		</g>
	</g>
	<g id="Layer">
		<g id="Layer">
			<path id="Layer" class="shp0" d="M396 230L436 230L436 270L396 270L396 230Z" />
		</g>
	</g>
	<g id="Layer">
		<g id="Layer">
			<path id="Layer" class="shp0" d="M76 310L116 310L116 350L76 350L76 310Z" />
		</g>
	</g>
	<g id="Layer">
		<g id="Layer">
			<path id="Layer" class="shp0" d="M157 310L197 310L197 350L157 350L157 310Z" />
		</g>
	</g>
	<g id="Layer">
		<g id="Layer">
			<path id="Layer" class="shp0" d="M236 310L276 310L276 350L236 350L236 310Z" />
		</g>
	</g>
	<g id="Layer">
		<g id="Layer">
			<path id="Layer" class="shp0" d="M316 310L356 310L356 350L316 350L316 310Z" />
		</g>
	</g>
	<g id="Layer">
		<g id="Layer">
			<path id="Layer" class="shp0" d="M76 390L116 390L116 430L76 430L76 390Z" />
		</g>
	</g>
	<g id="Layer">
		<g id="Layer">
			<path id="Layer" class="shp0" d="M157 390L197 390L197 430L157 430L157 390Z" />
		</g>
	</g>
	<g id="Layer">
		<g id="Layer">
			<path id="Layer" class="shp0" d="M236 390L276 390L276 430L236 430L236 390Z" />
		</g>
	</g>
	<g id="Layer">
		<g id="Layer">
			<path id="Layer" class="shp0" d="M316 390L356 390L356 430L316 430L316 390Z" />
		</g>
	</g>
	<g id="Layer">
		<g id="Layer">
			<path id="Layer" class="shp0" d="M397 314L437 314L437 354L397 354L397 314Z" />
		</g>
	</g>
	<g id="Layer">
	</g>
	<g id="Layer">
	</g>
	<g id="Layer">
	</g>
	<g id="Layer">
	</g>
	<g id="Layer">
	</g>
	<g id="Layer">
	</g>
	<g id="Layer">
	</g>
	<g id="Layer">
	</g>
	<g id="Layer">
	</g>
	<g id="Layer">
	</g>
	<g id="Layer">
	</g>
	<g id="Layer">
	</g>
	<g id="Layer">
	</g>
	<g id="Layer">
	</g>
	<g id="Layer">
	</g>
</svg>