<svg xmlns="http://www.w3.org/2000/svg" width="30.975" height="25.583" viewBox="0 0 30.975 25.583"><defs><style>.a{fill:#585858;stroke:#fff;stroke-width:0.25px;}</style></defs><path class="a" d="M6.024,961.362a.931.931,0,1,0,0,1.854h3.4c1.695,3.8,3.364,7.605,5.046,11.411L12.926,978a.867.867,0,0,0,.094.873,1.077,1.077,0,0,0,.855.411H30.944a.933.933,0,1,0,0-1.854H15.412l.885-1.911,16.439-1.188a1.027,1.027,0,0,0,.917-.714l2.048-8.032a1,1,0,0,0-1-1.13H12.18l-1.109-2.51a1.056,1.056,0,0,0-.949-.579ZM13,966.3H33.408l-1.589,6.237-15.564,1.12Zm4.288,14.211a3.1,3.1,0,1,0,0,6.179,3.1,3.1,0,1,0,0-6.179Zm10.241,0a3.1,3.1,0,1,0,0,6.179,3.1,3.1,0,1,0,0-6.179ZM17.289,982.37a1.242,1.242,0,1,1-1.365,1.236A1.291,1.291,0,0,1,17.289,982.37Zm10.241,0a1.242,1.242,0,1,1-1.365,1.236A1.291,1.291,0,0,1,27.53,982.37Z" transform="translate(-4.875 -961.237)"/></svg>