<svg xmlns="http://www.w3.org/2000/svg" width="22" height="19.941" viewBox="0 0 22 19.941">
  <g id="Group_13602" data-name="Group 13602" transform="translate(-2.5 -6.9)">
    <path id="Path_2797" data-name="Path 2797" d="M37.105,31.634H23.063a.763.763,0,1,0,0,1.527H37.105L33.89,36.377a.769.769,0,1,0,1.087,1.087l4.511-4.511a.8.8,0,0,0,.231-.532.7.7,0,0,0-.231-.532l-4.534-4.557a.8.8,0,0,0-.532-.231.7.7,0,0,0-.532.231.768.768,0,0,0,0,1.087Z" transform="translate(-15.22 -15.527)" fill="#333"/>
    <path id="Path_2798" data-name="Path 2798" d="M5.554,26.841h7.056a3.051,3.051,0,0,0,3.054-3.054V20.942a.763.763,0,1,0-1.527,0v2.845a1.54,1.54,0,0,1-1.527,1.527H5.554a1.54,1.54,0,0,1-1.527-1.527V9.954A1.54,1.54,0,0,1,5.554,8.427h7.056a1.54,1.54,0,0,1,1.527,1.527V12.8a.763.763,0,0,0,1.527,0V9.954A3.051,3.051,0,0,0,12.609,6.9H5.554A3.051,3.051,0,0,0,2.5,9.954V23.787A3.051,3.051,0,0,0,5.554,26.841Z" fill="#333"/>
  </g>
</svg>
