<svg xmlns="http://www.w3.org/2000/svg" width="27.38" height="31.839" viewBox="0 0 27.38 31.839"><defs><style>.a{fill:#616161;stroke:#616161;stroke-width:0.5px;}</style></defs><g transform="translate(0.25 0.25)"><path class="a" d="M20.343,32.107H9.005A.6.6,0,0,1,8.4,31.5V1.405A.6.6,0,0,1,9.005.8H28.083A.605.605,0,0,1,28.5.959l5.51,5.382a.578.578,0,0,1,.191.446v5.542a.605.605,0,0,1-1.21,0V7.074L27.8,2.01H9.61V30.9H20.375a.6.6,0,0,1,.605.605A.612.612,0,0,1,20.343,32.107Z" transform="translate(-8.4 -0.8)"/><path class="a" d="M21.8,30.3H34.54a.7.7,0,1,0,0-1.4H21.8a.707.707,0,0,0-.7.7A.729.729,0,0,0,21.8,30.3Z" transform="translate(-17.055 -19.95)"/><path class="a" d="M22,18.2H34.74a.7.7,0,1,0,0-1.4H22a.707.707,0,0,0-.7.7A.729.729,0,0,0,22,18.2Z" transform="translate(-17.192 -11.704)"/><path class="a" d="M22,42.6h7.453a.7.7,0,0,0,0-1.4H22a.707.707,0,0,0-.7.7A.729.729,0,0,0,22,42.6Z" transform="translate(-17.192 -28.333)"/><path class="a" d="M26.651,55.4H22A.7.7,0,1,1,22,54h4.65a.707.707,0,0,1,.7.7A.753.753,0,0,1,26.651,55.4Z" transform="translate(-17.192 -37.056)"/><path class="a" d="M64.04,48.02a6.72,6.72,0,1,0-9.778,5.988l-1.019,5a.618.618,0,0,0,.223.605.668.668,0,0,0,.35.127.445.445,0,0,0,.287-.1l3.249-1.879L60.6,59.613a.58.58,0,0,0,.637-.032.611.611,0,0,0,.255-.605l-.892-5.1A6.673,6.673,0,0,0,64.04,48.02Zm-3.949,9.937-2.389-1.4a.675.675,0,0,0-.605,0l-2.389,1.4.7-3.472a6.517,6.517,0,0,0,1.943.287,6.661,6.661,0,0,0,2.134-.35ZM57.32,53.53a5.526,5.526,0,1,1,5.542-5.51A5.546,5.546,0,0,1,57.32,53.53Z" transform="translate(-37.16 -28.401)"/><path class="a" d="M66.881,51.489a.415.415,0,0,0-.318-.287l-2.484-.35-1.115-2.229a.432.432,0,0,0-.35-.223.392.392,0,0,0-.35.223l-1.115,2.229-2.484.35a.374.374,0,0,0-.318.287.386.386,0,0,0,.1.414l1.784,1.752-.414,2.452a.345.345,0,0,0,.159.382.3.3,0,0,0,.223.064.4.4,0,0,0,.191-.032l2.229-1.178,2.2,1.178a.392.392,0,0,0,.414-.032.388.388,0,0,0,.159-.382l-.414-2.452L66.753,51.9A.4.4,0,0,0,66.881,51.489Zm-2.612,1.752a.479.479,0,0,0-.127.35l.318,1.879-1.688-.892a.4.4,0,0,0-.191-.032c-.064,0-.127.032-.191.032L60.7,55.47l.318-1.879a.379.379,0,0,0-.127-.35l-1.369-1.306,1.879-.287a.46.46,0,0,0,.318-.223l.828-1.688.828,1.688a.4.4,0,0,0,.318.223l1.879.287Z" transform="translate(-42.421 -33.24)"/></g></svg>