<svg xmlns="http://www.w3.org/2000/svg" width="34.73" height="25.018" viewBox="0 0 34.73 25.018">
  <path id="Path_77176" data-name="Path 77176" d="M68.449,61.626H66.33v-.618a.816.816,0,0,0-.593-.818,18.939,18.939,0,0,0-4.81-.623h-.035a12.637,12.637,0,0,0-9,3.278c-2.693-2.705-6.375-3.278-9-3.278H42.84a18.962,18.962,0,0,0-4.809.62.813.813,0,0,0-.589.811v.618h-2.09a.818.818,0,0,0-.817.821V83.752a.814.814,0,0,0,.814.818h0a.79.79,0,0,0,.389-.1A23.413,23.413,0,0,1,51.7,83.144l.019.005h.162a.921.921,0,0,0,.215,0c9.1-2.307,15.55,1.093,15.913,1.3l.033.021a.808.808,0,0,0,.407.11.822.822,0,0,0,.213-.029.809.809,0,0,0,.5-.381.823.823,0,0,0,.109-.4V62.443A.819.819,0,0,0,68.449,61.626ZM61.24,80.333a29.071,29.071,0,0,1,4.178.326.824.824,0,0,0,.932-.685.983.983,0,0,0,.009-.131V63.261h1.3L67.625,82.47a24.762,24.762,0,0,0-9.156-1.755q-.665,0-1.331.036A17.257,17.257,0,0,1,61.24,80.333Zm0-1.635a16.2,16.2,0,0,0-8.526,2.009V64.412a10.83,10.83,0,0,1,8.179-3.178,18.4,18.4,0,0,1,3.808.411V78.918A29.863,29.863,0,0,0,61.241,78.7ZM37.7,80.428a.811.811,0,0,0,.575.246c.039,0,.087,0,.131-.008a29.2,29.2,0,0,1,4.151-.333,17.526,17.526,0,0,1,4.083.419A24.732,24.732,0,0,0,36.17,82.47V63.261h1.3V79.847A.814.814,0,0,0,37.7,80.428ZM42.554,78.7a29.772,29.772,0,0,0-3.481.214V61.65a18.258,18.258,0,0,1,3.808-.411c2.434,0,5.823.553,8.179,3.178l.02,16.294a15.94,15.94,0,0,0-8.376-2v0Z" transform="translate(-34.535 -59.557)" fill="#585858"/>
</svg>
