<svg xmlns="http://www.w3.org/2000/svg" width="22.169" height="22.169" viewBox="0 0 22.169 22.169"><defs><style>.a{fill:#333;stroke:#333;stroke-width:1.2px;}</style></defs><g transform="translate(-21.533 -34.533)"><g transform="translate(0 -952.362)"><path class="a" d="M17.485,959.362a10.485,10.485,0,1,0,10.485,10.485A10.492,10.492,0,0,0,17.485,959.362Zm0,.975a9.509,9.509,0,1,1-9.509,9.509A9.5,9.5,0,0,1,17.485,960.337Zm-2.6,4.381a1.555,1.555,0,0,0-.762.213,1.633,1.633,0,0,0-.785,1.372v7.056a1.65,1.65,0,0,0,.785,1.379,1.6,1.6,0,0,0,1.577.015q3.051-1.764,6.1-3.535a1.6,1.6,0,0,0,0-2.766c-2.025-1.194-4.086-2.332-6.1-3.535A1.659,1.659,0,0,0,14.886,964.719Zm.038.968a.68.68,0,0,1,.3.084q3.046,1.76,6.1,3.528a.6.6,0,0,1,.312.533.612.612,0,0,1-.312.541c-2.035,1.172-4.058,2.367-6.1,3.536a.593.593,0,0,1-.6-.008.631.631,0,0,1-.3-.549v-7.033a.631.631,0,0,1,.3-.549A.588.588,0,0,1,14.924,965.686Z" transform="translate(15.133 28.133)"/></g></g></svg>