<svg xmlns="http://www.w3.org/2000/svg" width="21.702" height="21.903" viewBox="0 0 21.702 21.903">
  <g id="Group_13605" data-name="Group 13605" transform="translate(-146.71 -255.188)">
    <path id="Path_3890" data-name="Path 3890" d="M157.562,255.188a5.257,5.257,0,0,0-5.251,5.25,5.229,5.229,0,0,0,5.207,5.251h.044a5.25,5.25,0,0,0,0-10.5Zm0,8.8a3.55,3.55,0,0,1-.059-7.1h.059a3.55,3.55,0,0,1,0,7.1Z" fill="#262626"/>
    <path id="Path_3891" data-name="Path 3891" d="M146.91,276.823a.788.788,0,0,0,.547.266.779.779,0,0,0,.1,0,.79.79,0,0,0,.858-.746.769.769,0,0,0,0-.1,6.967,6.967,0,0,1,6.949-6.958h4.4a6.966,6.966,0,0,1,6.95,6.95.851.851,0,0,0,1.7,0,8.772,8.772,0,0,0-8.652-8.651h-4.4a8.68,8.68,0,0,0-8.65,8.651A.8.8,0,0,0,146.91,276.823Z" fill="#262626"/>
  </g>
</svg>
