<svg xmlns="http://www.w3.org/2000/svg" width="22.305" height="22.305" viewBox="0 0 22.305 22.305">
  <g id="Group_13606" data-name="Group 13606" transform="translate(-173.409 -297.886)">
    <path id="Path_3893" data-name="Path 3893" d="M184.562,304.622a4.417,4.417,0,1,0,4.417,4.417A4.421,4.421,0,0,0,184.562,304.622Zm0,7.36a2.944,2.944,0,1,1,2.944-2.944A2.948,2.948,0,0,1,184.562,311.982Z" fill="#262626"/>
    <path id="Path_3894" data-name="Path 3894" d="M195.461,311.367l-1.817-1.64v-1.376l1.817-1.641a.763.763,0,0,0,.193-.856l-1-2.407a.763.763,0,0,0-.741-.469l-2.445.125-.971-.974.124-2.443a.763.763,0,0,0-.468-.742l-2.408-1a.759.759,0,0,0-.855.194l-1.64,1.819h-1.377l-1.641-1.819a.762.762,0,0,0-.856-.191l-2.407,1a.763.763,0,0,0-.469.741l.126,2.441-.974.975-2.444-.125a.772.772,0,0,0-.741.468l-1,2.408a.762.762,0,0,0,.193.855l1.817,1.641v1.377l-1.817,1.639a.761.761,0,0,0-.193.856l1,2.408a.767.767,0,0,0,.741.469l2.444-.125.974.973-.125,2.444a.761.761,0,0,0,.469.741l2.408,1a.759.759,0,0,0,.855-.193l1.641-1.816h1.377l1.639,1.815a.763.763,0,0,0,.856.193l2.407-1a.761.761,0,0,0,.469-.741l-.124-2.444.973-.974,2.445.125a.769.769,0,0,0,.741-.469l1-2.409A.764.764,0,0,0,195.461,311.367Zm-6.387,6.569-1.416.586-1.507-1.671a.762.762,0,0,0-.564-.249h-2.053a.76.76,0,0,0-.564.249l-1.507,1.67-1.417-.587.115-2.246a.76.76,0,0,0-.222-.577l-1.451-1.45a.765.765,0,0,0-.576-.222l-2.246.114-.586-1.416,1.67-1.508a.759.759,0,0,0,.248-.563v-2.053a.762.762,0,0,0-.249-.565l-1.669-1.507.587-1.416,2.246.115a.8.8,0,0,0,.576-.223l1.452-1.451a.764.764,0,0,0,.221-.577l-.115-2.246,1.417-.587,1.506,1.67a.76.76,0,0,0,.562.25h2.057a.762.762,0,0,0,.563-.25l1.507-1.669,1.416.587-.115,2.246a.766.766,0,0,0,.222.577l1.452,1.45a.755.755,0,0,0,.577.223l2.246-.115.587,1.416-1.671,1.508a.757.757,0,0,0-.248.564v2.052a.757.757,0,0,0,.249.565l1.669,1.507-.587,1.416-2.246-.114a.762.762,0,0,0-.577.222l-1.452,1.452a.763.763,0,0,0-.222.576Z" fill="#262626"/>
  </g>
</svg>
