<svg xmlns="http://www.w3.org/2000/svg" width="49.278" height="47.225" viewBox="0 0 49.278 47.225"><defs><style>.a{opacity:0.2;}.b{fill:#a2d66e;}</style></defs><g class="a"><path class="b" d="M8.75,17.612v9.523a1.539,1.539,0,0,0,2.78.912L17.1,20.466Z" transform="translate(9.216 18.55)"/><path class="b" d="M48.632.285A1.541,1.541,0,0,0,47.026.175L.828,24.3a1.541,1.541,0,0,0,.214,2.823l12.843,4.39L41.236,8.127l-21.165,25.5L41.6,40.983a1.576,1.576,0,0,0,.5.082,1.539,1.539,0,0,0,1.524-1.312L49.262,1.768a1.543,1.543,0,0,0-.63-1.482Z" transform="translate(0 0)"/></g></svg>