<svg xmlns="http://www.w3.org/2000/svg" width="14.569" height="13.925" viewBox="0 0 14.569 13.925"><defs><style>.a{fill:#ff9100;}</style></defs><g transform="translate(-11.659 -46.052)"><g transform="translate(11.65 46.047)"><g transform="translate(0.009 0.006)"><path class="a" d="M3.044,8.68a.674.674,0,0,1,.2.6l-.69,3.864a.665.665,0,0,0,.954.706L6.965,12A.674.674,0,0,1,7.6,12l3.46,1.854a.665.665,0,0,0,.97-.706l-.684-3.864a.674.674,0,0,1,.2-.6l2.83-2.719A.668.668,0,0,0,14,4.819l-3.883-.534A.674.674,0,0,1,9.6,3.916L7.893.379a.668.668,0,0,0-1.2,0L4.983,3.916a.674.674,0,0,1-.525.369L.585,4.819A.668.668,0,0,0,.213,5.96Z" transform="translate(-0.009 -0.006)"/></g></g></g></svg>