<svg xmlns="http://www.w3.org/2000/svg" width="27.266" height="27.265" viewBox="0 0 27.266 27.265"><defs><style>.a{fill:#585858;stroke:#585858;stroke-width:0.75px;}</style></defs><path class="a" d="M25.19,15.026v9.335a2.212,2.212,0,0,1-2.21,2.21H3.537a2.212,2.212,0,0,1-2.21-2.21V15.026a.442.442,0,0,1,.884,0v9.335a1.327,1.327,0,0,0,1.326,1.326H22.981a1.327,1.327,0,0,0,1.326-1.326V15.026a.442.442,0,0,1,.884,0ZM2.874,7.127a.442.442,0,0,0,.442.442c24.044,0,22.852.043,23.027-.092a.439.439,0,0,0,.168-.289c.025-.178.183.259-2.9-6.866A.442.442,0,0,0,23.2.056H3.316A.442.442,0,0,0,2.91.322L.038,6.951C-.013,7.068,0,6.882,0,9.868A3.644,3.644,0,0,0,6.85,11.6a3.647,3.647,0,0,0,6.409,0,3.647,3.647,0,0,0,6.408,0,3.645,3.645,0,0,0,6.85-1.739.442.442,0,1,0-.884,0,2.762,2.762,0,1,1-5.524,0,.442.442,0,0,0-.884,0,2.762,2.762,0,0,1-5.524,0,.442.442,0,1,0-.884,0,2.762,2.762,0,1,1-5.524-.022.442.442,0,1,0-.884,0,2.762,2.762,0,1,1-5.524.022V7.218L3.606.94H22.912L25.4,6.685H3.316a.442.442,0,0,0-.442.442Z" transform="translate(0.375 0.319)"/></svg>